<svg width="49" height="58" viewBox="0 0 49 58" fill="none" xmlns="http://www.w3.org/2000/svg">
<g clip-path="url(#clip0)">
<path d="M25.191 40.5V20C30.6909 28 35.1912 22.0001 36.1912 21.0001C37.1912 20.0001 39.6912 10.5 29.6912 11C28.6912 -1 13.1912 -3.49988 9.19104 10C3.69104 10 -0.308958 15 1.69104 20.5C3.69104 26 11.691 27 15.191 20L20.191 21.5V41C20.191 44 25.191 45.5 25.191 40.5Z" fill="white"/>
<path d="M34.3622 50.8871V23.6438C32.1978 24.1613 27.3467 24.279 25.2575 20.6089V40.7944C25.2575 44.1116 20.1053 45.4526 20.1053 40.2298V21.8087C19.2348 21.4558 17.0422 20.7218 15.2354 20.6089C13.6826 23.432 8.24808 27.6668 4.2251 23.6438V51.6635C4.2251 53.428 6.41304 57.3804 9.44792 57.3804H29.21C30.4098 57.3804 34.3622 55.8982 34.3622 50.8871Z" fill="#DCB417"/>
<path d="M9.6295 29.4097C9.00587 29.4097 8.50024 29.9153 8.50024 30.5389V49.3072C8.50024 49.9308 9.00587 50.4365 9.6295 50.4365C10.2531 50.4365 10.7588 49.9308 10.7588 49.3072V30.5389C10.7588 29.9152 10.2531 29.4097 9.6295 29.4097Z" fill="#582F28"/>
<path d="M19.358 45.0105C18.7344 45.0105 18.2288 45.5161 18.2288 46.1398V49.3073C18.2288 49.931 18.7344 50.4366 19.358 50.4366C19.9817 50.4366 20.4873 49.931 20.4873 49.3073V46.1398C20.4873 45.516 19.9817 45.0105 19.358 45.0105Z" fill="#582F28"/>
<path d="M36.6133 22.7922C37.9335 21.3966 38.6686 19.548 38.6675 17.6268C38.665 13.4793 35.3008 10.1194 31.1533 10.1219H30.7411C30.2911 5.09996 26.5161 1.01035 21.5461 0.160726C15.497 -0.873534 9.75467 3.19194 8.72055 9.2411H8.38177C5.72675 9.24406 3.22981 10.5033 1.64927 12.6366C-1.10937 16.3599 -0.327213 21.6145 3.3961 24.3732V51.3229C3.40541 55.1983 6.54475 58.3376 10.4201 58.3469H28.4205C32.2674 58.3349 35.3925 55.2374 35.4388 51.3907L35.4558 51.402C42.0765 50.8728 47.4794 45.8899 48.5418 39.3337C49.8156 31.4718 44.475 24.066 36.6133 22.7922ZM33.1577 51.3229C33.1515 53.9376 31.0351 56.0565 28.4205 56.0658H10.4201C7.80317 56.0596 5.68341 53.9399 5.6772 51.3229V25.5702C6.51709 25.8265 7.38591 25.9764 8.2632 26.0162C10.0191 25.9951 11.7312 25.4656 13.1924 24.4917C14.2697 23.7325 15.1537 22.7305 15.7728 21.567C16.8097 21.9256 17.8869 22.1552 18.9799 22.2502V41.1935C18.9851 42.0802 19.3378 42.9297 19.9623 43.5593C20.7227 44.2285 21.7111 44.5801 22.7234 44.5417C23.6481 44.5427 24.5385 44.1915 25.2134 43.5593C25.8425 42.9328 26.1961 42.0814 26.1958 41.1935V23.2891C26.3577 23.4284 26.5252 23.5619 26.6984 23.69C28.0401 24.6184 29.6291 25.1237 31.2606 25.1411C31.9013 25.1199 32.5376 25.0272 33.1577 24.8644V51.3229ZM34.829 21.3185C33.8104 22.241 32.5033 22.7818 31.1307 22.8487C30.0283 22.8864 28.9476 22.5367 28.0761 21.8606C27.2685 21.1435 26.6269 20.2591 26.1958 19.2689C26.0526 18.7633 25.5921 18.4134 25.0666 18.4107C24.4429 18.4107 23.9373 18.9163 23.9373 19.5399V41.1878C23.9342 41.7728 23.4608 42.2462 22.8758 42.2493C22.7029 42.2608 22.5293 42.2608 22.3564 42.2493C21.7748 42.1814 21.3266 41.7048 21.2949 41.1201V39.0987C21.3287 36.8515 21.3852 33.3847 21.3852 30.4768C21.3852 28.8676 21.3513 27.2754 21.2723 25.8412V21.0814C21.2721 21.075 21.2718 21.0687 21.2714 21.0623C21.2399 20.4394 20.7093 19.96 20.0865 19.9916H19.6687C18.982 19.9984 18.2972 19.9187 17.6304 19.7545C16.9791 19.5771 16.3429 19.3487 15.7276 19.0713C15.4361 18.9316 15.101 18.9132 14.796 19.0205C14.5036 19.1598 14.2697 19.3978 14.1354 19.6924C13.6242 20.8352 12.8504 21.8412 11.8768 22.6285C10.8025 23.3416 9.54689 23.7334 8.25756 23.7577C7.16373 23.7238 6.09658 23.4109 5.15774 22.8487L5.11822 22.7866L5.12386 22.8543C3.31197 21.7323 2.21658 19.7463 2.23409 17.6153C2.26161 14.2444 5.01672 11.5342 8.38756 11.5617C8.60777 11.5617 8.76586 11.5448 8.95219 11.5617C9.13852 11.5787 9.32485 11.6069 9.51682 11.6408C9.5236 11.642 9.53037 11.6433 9.53715 11.6446C10.1516 11.7517 10.7364 11.3405 10.8436 10.7261C10.8462 10.6809 10.8462 10.6357 10.8436 10.5906C11.1713 5.99321 14.9798 2.42108 19.5887 2.38805C24.4657 2.35304 28.4476 6.27821 28.4826 11.1552C28.4826 11.1834 28.4826 11.4093 28.4826 11.4093C28.4793 11.5143 28.4908 11.6192 28.5166 11.721C28.6698 12.3255 29.2839 12.6916 29.8885 12.5385C30.0914 12.4907 30.2969 12.4548 30.504 12.4313C30.712 12.4077 30.9214 12.3964 31.1307 12.3974C32.5142 12.3982 33.8408 12.9473 34.8203 13.9244C36.8645 15.9637 36.8685 19.2743 34.829 21.3185ZM35.4388 29.8896C38.5217 30.3818 40.9392 32.7993 41.4314 35.8822C42.0602 39.8206 39.3773 43.5233 35.4388 44.1521V29.8896ZM35.4445 49.0983V46.4558C39.814 45.9424 43.2598 42.4967 43.7733 38.127C44.3858 32.9146 40.6569 28.1927 35.4445 27.5803V24.9378C41.2451 25.4851 45.8379 30.0778 46.385 35.8783C47.0144 42.5501 42.1163 48.4689 35.4445 49.0983Z" fill="#582F28"/>
<path d="M29.0809 29.4097C28.4573 29.4097 27.9517 29.9153 27.9517 30.5389V49.3072C27.9517 49.9308 28.4573 50.4365 29.0809 50.4365C29.7046 50.4365 30.2102 49.9308 30.2102 49.3072V30.5389C30.2102 29.9152 29.7046 29.4097 29.0809 29.4097Z" fill="#582F28"/>
</g>
<defs>
<clipPath id="clip0">
<rect width="49" height="58" fill="white"/>
</clipPath>
</defs>
</svg>
